<mxfile host="65bd71144e">
    <diagram id="HwYBef5PtIvsNGRUk54D" name="Pagina-1">
        <mxGraphModel dx="1743" dy="554" grid="1" gridSize="10" guides="1" tooltips="1" connect="1" arrows="1" fold="1" page="1" pageScale="1" pageWidth="827" pageHeight="1169" math="0" shadow="0">
            <root>
                <mxCell id="0"/>
                <mxCell id="1" parent="0"/>
                <mxCell id="16" value="" style="endArrow=diamondThin;endFill=1;endSize=24;html=1;" edge="1" parent="1" source="23" target="24">
                    <mxGeometry width="160" relative="1" as="geometry">
                        <mxPoint x="274" y="375.73977695167287" as="sourcePoint"/>
                        <mxPoint x="130" y="374.5258620689656" as="targetPoint"/>
                    </mxGeometry>
                </mxCell>
                <mxCell id="17" value="Turno" style="html=1;" vertex="1" parent="1">
                    <mxGeometry x="-220" y="350" width="110" height="50" as="geometry"/>
                </mxCell>
                <mxCell id="18" value="Impiegato" style="html=1;" vertex="1" parent="1">
                    <mxGeometry x="-220" y="535" width="110" height="50" as="geometry"/>
                </mxCell>
                <mxCell id="21" value="" style="endArrow=diamondThin;endFill=0;endSize=24;html=1;" edge="1" parent="1" source="18" target="17">
                    <mxGeometry width="160" relative="1" as="geometry">
                        <mxPoint x="-120" y="470" as="sourcePoint"/>
                        <mxPoint x="40" y="470" as="targetPoint"/>
                    </mxGeometry>
                </mxCell>
                <mxCell id="22" value="" style="endArrow=diamondThin;endFill=1;endSize=24;html=1;" edge="1" parent="1" source="24" target="18">
                    <mxGeometry width="160" relative="1" as="geometry">
                        <mxPoint x="75" y="400" as="sourcePoint"/>
                        <mxPoint x="140" y="385.2044609665427" as="targetPoint"/>
                        <Array as="points">
                            <mxPoint x="75" y="560"/>
                        </Array>
                    </mxGeometry>
                </mxCell>
                <mxCell id="23" value="&lt;p style=&quot;margin: 0px ; margin-top: 4px ; text-align: center&quot;&gt;&lt;b&gt;Vincolo&lt;/b&gt;&lt;/p&gt;&lt;hr size=&quot;1&quot;&gt;&lt;p style=&quot;margin: 0px ; margin-left: 4px&quot;&gt;- int uffas&lt;br&gt;&lt;/p&gt;&lt;hr size=&quot;1&quot;&gt;&lt;p style=&quot;margin: 0px ; margin-left: 4px&quot;&gt;+ evaluate()&lt;br&gt;&lt;/p&gt;" style="verticalAlign=top;align=left;overflow=fill;fontSize=12;fontFamily=Helvetica;html=1;" vertex="1" parent="1">
                    <mxGeometry x="270" y="330" width="90" height="85" as="geometry"/>
                </mxCell>
                <mxCell id="24" value="&lt;p style=&quot;margin: 0px ; margin-top: 4px ; text-align: center&quot;&gt;&lt;b&gt;Scocciatura&lt;/b&gt;&lt;/p&gt;&lt;hr size=&quot;1&quot;&gt;&lt;p style=&quot;margin: 0px ; margin-left: 4px&quot;&gt;&lt;br&gt;&lt;/p&gt;&lt;hr size=&quot;1&quot;&gt;&lt;p style=&quot;margin: 0px ; margin-left: 4px&quot;&gt;+ calculateUffaScore()&lt;/p&gt;" style="verticalAlign=top;align=left;overflow=fill;fontSize=12;fontFamily=Helvetica;html=1;" vertex="1" parent="1">
                    <mxGeometry x="10" y="332.5" width="130" height="85" as="geometry"/>
                </mxCell>
                <mxCell id="25" value="Ogni impiegato specifica&lt;br&gt;i valori dei parametri che concorrono alla verifica del rispetto dei vincoli di una Scocciatura." style="shape=note;size=15;align=left;spacingLeft=10;html=1;whiteSpace=wrap;" vertex="1" parent="1">
                    <mxGeometry x="130" y="460" width="150" height="115" as="geometry"/>
                </mxCell>
                <mxCell id="26" value="" style="edgeStyle=none;endArrow=none;dashed=1;html=1;" edge="1" source="25" parent="1">
                    <mxGeometry x="1" relative="1" as="geometry">
                        <mxPoint x="76" y="510" as="targetPoint"/>
                        <mxPoint x="156" y="575" as="sourcePoint"/>
                    </mxGeometry>
                </mxCell>
            </root>
        </mxGraphModel>
    </diagram>
</mxfile>